
<svg xmlns="http://www.w3.org/2000/svg" version="1.1" xmlns:xlink="http://www.w3.org/1999/xlink" preserveAspectRatio="none" x="0px" y="0px" width="376px" height="273px" viewBox="0 0 376 273">
<defs>
<linearGradient id="Gradient_1" gradientUnits="userSpaceOnUse" x1="414.86250000000007" y1="42.36249999999998" x2="733.0375" y2="360.5375" spreadMethod="pad">
<stop  offset="0%" stop-color="#EE0979"/>

<stop  offset="94.50980392156863%" stop-color="#FF6A00"/>
</linearGradient>

<g id="Layer0_0_FILL">
<path fill="url(#Gradient_1)" stroke="none" d="
M 743.95 284.85
Q 761.5 279.35 780 278.45 798.8 277.5 816.6 281.45
L 816.6 85.35 366.6 85.35 366.6 293.45
Q 370.3 290.55 377.3 289 398.8 284.2 422.05 292.95 441.5 300.3 459.8 316 464.1 319.7 474 329.65 483.25 338.95 488.85 343.55 507.15 358.5 526.4 357.6 537.65 357.1 548.4 350.85 556.9 345.9 565.9 336.85 577.5 324.2 583.85 318.2 594.95 307.65 605.75 303.7 618.1 299.1 632.65 302.8 638.6 304.35 658.05 312.5 665.65 315.65 672.15 316.5 679.85 317.5 686.75 315.35 693.1 313.35 700.7 307.9 704.95 304.85 713.35 298.7 726.6 290.4 743.95 284.85 Z"/>
</g>
</defs>

<g transform="matrix( 1, 0, 0, 1, -403.6,-85.35) ">
<use xlink:href="#Layer0_0_FILL"/>
</g>
</svg>
